ffmpeg version 7.1.3-0+deb13u1+rpt1 Copyright (c) 2000-2025 the FFmpeg developers
  built with gcc 14 (Debian 14.2.0-19)
  configuration: --prefix=/usr --extra-version=0+deb13u1+rpt1 --toolchain=hardened --incdir=/usr/include/aarch64-linux-gnu --enable-gpl --disable-stripping --disable-libmfx --disable-mmal --disable-omx --enable-gnutls --enable-libaom --enable-libass --enable-libbs2b --enable-libcdio --enable-libcodec2 --enable-libdav1d --enable-libflite --enable-libfontconfig --enable-libfreetype --enable-libfribidi --enable-libglslang --enable-libgme --enable-libgsm --enable-libharfbuzz --enable-libmp3lame --enable-libmysofa --enable-libopenjpeg --enable-libopenmpt --enable-libopus --enable-librubberband --enable-libshine --enable-libsnappy --enable-libsoxr --enable-libspeex --enable-libtheora --enable-libtwolame --enable-libvidstab --enable-libvorbis --enable-libvpx --enable-libwebp --enable-libx265 --enable-libxml2 --enable-libxvid --enable-libzimg --enable-openal --enable-opencl --enable-opengl --disable-sndio --disable-libvpl --libdir=/usr/lib/aarch64-linux-gnu --arch=arm64 --enable-neon --enable-v4l2-request --enable-libudev --enable-epoxy --enable-libdc1394 --enable-libdrm --enable-libiec61883 --enable-vout-drm --enable-chromaprint --enable-frei0r --enable-ladspa --enable-libbluray --enable-libcaca --enable-libdvdnav --enable-libdvdread --enable-libjack --enable-libpulse --enable-librabbitmq --enable-librist --enable-libsrt --enable-libssh --enable-libsvtav1 --enable-libx264 --enable-libzmq --enable-libzvbi --enable-lv2 --enable-sand --enable-sdl2 --enable-libplacebo --enable-librav1e --enable-pocketsphinx --enable-librsvg --enable-libjxl --enable-shared
  libavutil      59. 39.100 / 59. 39.100
  libavcodec     61. 19.101 / 61. 19.101
  libavformat    61.  7.100 / 61.  7.100
  libavdevice    61.  3.100 / 61.  3.100
  libavfilter    10.  4.100 / 10.  4.100
  libswscale      8.  3.100 /  8.  3.100
  libswresample   5.  3.100 /  5.  3.100
  libpostproc    58.  3.100 / 58.  3.100
Input #0, png_pipe, from '/home/davesuonabene/.openclaw/workspace/projects/beat-manager/assets/ronald/coverart_MIX1.png':
  Duration: N/A, bitrate: N/A
  Stream #0:0: Video: png, rgba(pc, gbr/bt709/iec61966-2-1), 3000x3000 [SAR 2835:2835 DAR 1:1], 25 fps, 25 tbr, 25 tbn
[aist#1:0/pcm_s16le @ 0x5555b76f3f00] Guessed Channel Layout: stereo
Input #1, wav, from '/home/davesuonabene/.openclaw/workspace/projects/beat-manager/assets/ronald/r6 - ronald v1 (mixtape).wav':
  Duration: 00:02:25.78, bitrate: 1536 kb/s
  Stream #1:0: Audio: pcm_s16le ([1][0][0][0] / 0x0001), 48000 Hz, stereo, s16, 1536 kb/s
Stream mapping:
  Stream #0:0 -> #0:0 (png (native) -> h264 (libx264))
  Stream #1:0 -> #0:1 (pcm_s16le (native) -> aac (native))
Press [q] to stop, [?] for help
[libx264 @ 0x5555b76f0050] using SAR=1/1
[libx264 @ 0x5555b76f0050] using cpu capabilities: ARMv8 NEON
[libx264 @ 0x5555b76f0050] profile High, level 4.0, 4:2:0, 8-bit
[libx264 @ 0x5555b76f0050] 264 - core 164 r3108 31e19f9 - H.264/MPEG-4 AVC codec - Copyleft 2003-2023 - http://www.videolan.org/x264.html - options: cabac=1 ref=3 deblock=1:0:0 analyse=0x3:0x113 me=hex subme=7 psy=1 psy_rd=1.00:0.00 mixed_ref=1 me_range=16 chroma_me=1 trellis=1 8x8dct=1 cqm=0 deadzone=21,11 fast_pskip=1 chroma_qp_offset=-2 threads=6 lookahead_threads=1 sliced_threads=0 nr=0 decimate=1 interlaced=0 bluray_compat=0 constrained_intra=0 bframes=3 b_pyramid=2 b_adapt=1 b_bias=0 direct=1 weightb=1 open_gop=0 weightp=2 keyint=250 keyint_min=25 scenecut=40 intra_refresh=0 rc_lookahead=40 rc=crf mbtree=1 crf=18.0 qcomp=0.60 qpmin=0 qpmax=69 qpstep=4 ip_ratio=1.40 aq=1:1.00
Output #0, mp4, to '/home/davesuonabene/.openclaw/workspace/projects/beat-manager/temp_videos/ronald_r6.mp4':
  Metadata:
    encoder         : Lavf61.7.100
  Stream #0:0: Video: h264 (avc1 / 0x31637661), yuv420p(tv, unknown/bt709/iec61966-2-1, progressive), 1920x1080 [SAR 1:1 DAR 16:9], q=2-31, 25 fps, 12800 tbn
      Metadata:
        encoder         : Lavc61.19.101 libx264
      Side data:
        cpb: bitrate max/min/avg: 0/0/0 buffer size: 0 vbv_delay: N/A
  Stream #0:1: Audio: aac (LC) (mp4a / 0x6134706D), 48000 Hz, stereo, fltp, 320 kb/s
      Metadata:
        encoder         : Lavc61.19.101 aac
frame=    0 fps=0.0 q=0.0 size=       0KiB time=N/A bitrate=N/A speed=N/A    frame=    0 fps=0.0 q=0.0 size=       0KiB time=N/A bitrate=N/A speed=N/A    frame=    0 fps=0.0 q=0.0 size=       0KiB time=N/A bitrate=N/A speed=N/A    frame=    0 fps=0.0 q=0.0 size=       0KiB time=N/A bitrate=N/A speed=N/A    frame=    0 fps=0.0 q=0.0 size=       0KiB time=N/A bitrate=N/A speed=N/A    frame=    1 fps=0.3 q=23.0 size=     256KiB time=-00:00:00.04 bitrate=N/A speed=N/A    frame=   14 fps=4.0 q=23.0 size=     256KiB time=00:00:00.48 bitrate=4369.9kbits/s speed=0.137x    frame=   23 fps=5.7 q=23.0 size=     256KiB time=00:00:00.84 bitrate=2497.1kbits/s speed=0.209x    frame=   34 fps=7.5 q=23.0 size=     512KiB time=00:00:01.28 bitrate=3277.1kbits/s speed=0.283x    frame=   43 fps=8.6 q=23.0 size=     512KiB time=00:00:01.64 bitrate=2557.7kbits/s speed=0.327x    frame=   52 fps=9.4 q=23.0 size=     512KiB time=00:00:02.00 bitrate=2097.3kbits/s speed=0.362x    frame=   60 fps= 10 q=23.0 size=     512KiB time=00:00:02.32 bitrate=1808.1kbits/s speed=0.385x    frame=   69 fps= 11 q=23.0 size=     512KiB time=00:00:02.68 bitrate=1565.2kbits/s speed=0.41x    frame=   78 fps= 11 q=23.0 size=     512KiB time=00:00:03.04 bitrate=1379.8kbits/s speed=0.432x    frame=   87 fps= 12 q=23.0 size=     512KiB time=00:00:03.40 bitrate=1233.7kbits/s speed=0.451x    frame=   96 fps= 12 q=23.0 size=     512KiB time=00:00:03.76 bitrate=1115.6kbits/s speed=0.468x    frame=  105 fps= 12 q=23.0 size=     512KiB time=00:00:04.12 bitrate=1018.1kbits/s speed=0.483x    frame=  114 fps= 13 q=23.0 size=     512KiB time=00:00:04.48 bitrate= 936.3kbits/s speed=0.496x    frame=  122 fps= 13 q=23.0 size=     512KiB time=00:00:04.80 bitrate= 873.9kbits/s speed=0.503x    frame=  130 fps= 13 q=23.0 size=     512KiB time=00:00:05.12 bitrate= 819.3kbits/s speed=0.51x    frame=  140 fps= 13 q=23.0 size=     512KiB time=00:00:05.52 bitrate= 759.9kbits/s speed=0.524x    frame=  149 fps= 13 q=23.0 size=     512KiB time=00:00:05.84 bitrate= 718.3kbits/s speed=0.529x    frame=  157 fps= 14 q=23.0 size=     512KiB time=00:00:06.20 bitrate= 676.6kbits/s speed=0.537x    frame=  166 fps= 14 q=23.0 size=     512KiB time=00:00:06.56 bitrate= 639.4kbits/s speed=0.545x    frame=  174 fps= 14 q=23.0 size=     512KiB time=00:00:06.88 bitrate= 609.7kbits/s speed=0.549x    frame=  182 fps= 14 q=23.0 size=     768KiB time=00:00:07.20 bitrate= 873.9kbits/s speed=0.552x    frame=  191 fps= 14 q=23.0 size=     768KiB time=00:00:07.56 bitrate= 832.3kbits/s speed=0.558x    frame=  199 fps= 14 q=23.0 size=     768KiB time=00:00:07.88 bitrate= 798.5kbits/s speed=0.561x    frame=  209 fps= 14 q=23.0 size=     768KiB time=00:00:08.28 bitrate= 759.9kbits/s speed=0.569x    frame=  217 fps= 14 q=23.0 size=     768KiB time=00:00:08.60 bitrate= 731.6kbits/s speed=0.572x    frame=  226 fps= 15 q=23.0 size=     768KiB time=00:00:08.96 bitrate= 702.2kbits/s speed=0.576x    frame=  234 fps= 15 q=23.0 size=     768KiB time=00:00:09.28 bitrate= 678.0kbits/s speed=0.578x    frame=  243 fps= 15 q=23.0 size=     768KiB time=00:00:09.64 bitrate= 652.7kbits/s speed=0.583x    frame=  244 fps= 14 q=23.0 size=     768KiB time=00:00:09.68 bitrate= 650.0kbits/s speed=0.568x    frame=  244 fps= 14 q=23.0 size=     768KiB time=00:00:09.68 bitrate= 650.0kbits/s speed=0.552x    frame=  244 fps= 14 q=23.0 size=     768KiB time=00:00:09.68 bitrate= 650.0kbits/s speed=0.536x    frame=  244 fps= 13 q=23.0 size=     768KiB time=00:00:09.68 bitrate= 650.0kbits/s speed=0.522x    frame=  244 fps= 13 q=23.0 size=     768KiB time=00:00:09.68 bitrate= 650.0kbits/s speed=0.508x    frame=  244 fps= 12 q=23.0 size=     768KiB time=00:00:09.68 bitrate= 650.0kbits/s speed=0.495x    frame=  244 fps= 12 q=23.0 size=     768KiB time=00:00:09.68 bitrate= 650.0kbits/s speed=0.483x    frame=  244 fps= 12 q=23.0 size=     768KiB time=00:00:09.68 bitrate= 650.0kbits/s speed=0.471x    frame=  244 fps= 12 q=23.0 size=     768KiB time=00:00:09.68 bitrate= 650.0kbits/s speed=0.46x    frame=  244 fps= 11 q=23.0 size=     768KiB time=00:00:09.68 bitrate= 650.0kbits/s speed=0.449x    frame=  244 fps= 11 q=23.0 size=     768KiB time=00:00:09.68 bitrate= 650.0kbits/s speed=0.439x    frame=  244 fps= 11 q=23.0 size=     768KiB time=00:00:09.68 bitrate= 650.0kbits/s speed=0.429x    frame=  244 fps= 11 q=23.0 size=     768KiB time=00:00:09.68 bitrate= 650.0kbits/s speed=0.42x    frame=  244 fps= 10 q=23.0 size=     768KiB time=00:00:09.68 bitrate= 650.0kbits/s speed=0.411x    frame=  244 fps= 10 q=23.0 size=     768KiB time=00:00:09.68 bitrate= 650.0kbits/s speed=0.402x    frame=  244 fps=9.9 q=23.0 size=     768KiB time=00:00:09.68 bitrate= 650.0kbits/s speed=0.394x    frame=  244 fps=9.7 q=23.0 size=     768KiB time=00:00:09.68 bitrate= 650.0kbits/s speed=0.386x    frame=  244 fps=9.5 q=23.0 size=     768KiB time=00:00:09.68 bitrate= 650.0kbits/s speed=0.379x    frame=  244 fps=9.4 q=23.0 size=     768KiB time=00:00:09.68 bitrate= 650.0kbits/s speed=0.371x    frame=  244 fps=9.2 q=23.0 size=     768KiB time=00:00:09.68 bitrate= 650.0kbits/s speed=0.364x    frame=  250 fps=9.2 q=23.0 size=     768KiB time=00:00:09.92 bitrate= 634.3kbits/s speed=0.367x    frame=  260 fps=9.4 q=23.0 size=    1280KiB time=00:00:10.32 bitrate=1016.1kbits/s speed=0.374x    frame=  269 fps=9.6 q=23.0 size=    1280KiB time=00:00:10.68 bitrate= 981.8kbits/s speed=0.381x    frame=  278 fps=9.7 q=23.0 size=    1280KiB time=00:00:11.04 bitrate= 949.8kbits/s speed=0.386x    frame=  288 fps=9.9 q=23.0 size=    1280KiB time=00:00:11.44 bitrate= 916.6kbits/s speed=0.394x    frame=  296 fps= 10 q=23.0 size=    1280KiB time=00:00:11.76 bitrate= 891.7kbits/s speed=0.398x    frame=  305 fps= 10 q=23.0 size=    1280KiB time=00:00:12.12 bitrate= 865.2kbits/s speed=0.403x    frame=  314 fps= 10 q=23.0 size=    1536KiB time=00:00:12.48 bitrate=1008.3kbits/s speed=0.408x    frame=  322 fps= 10 q=23.0 size=    1536KiB time=00:00:12.80 bitrate= 983.1kbits/s speed=0.412x    frame=  332 fps= 11 q=23.0 size=    1536KiB time=00:00:13.20 bitrate= 953.3kbits/s speed=0.418x    frame=  340 fps= 11 q=23.0 size=    1536KiB time=00:00:13.52 bitrate= 930.7kbits/s speed=0.422x    frame=  350 fps= 11 q=23.0 size=    1536KiB time=00:00:13.92 bitrate= 904.0kbits/s speed=0.427x    frame=  360 fps= 11 q=23.0 size=    1536KiB time=00:00:14.32 bitrate= 878.7kbits/s speed=0.433x    frame=  366 fps= 11 q=23.0 size=    1536KiB time=00:00:14.60 bitrate= 861.9kbits/s speed=0.435x    frame=  376 fps= 11 q=23.0 size=    1536KiB time=00:00:14.96 bitrate= 841.1kbits/s speed=0.439x    frame=  386 fps= 11 q=23.0 size=    1536KiB time=00:00:15.36 bitrate= 819.2kbits/s speed=0.444x    frame=  394 fps= 11 q=23.0 size=    1536KiB time=00:00:15.68 bitrate= 802.5kbits/s speed=0.447x    frame=  402 fps= 11 q=23.0 size=    1536KiB time=00:00:16.00 bitrate= 786.5kbits/s speed=0.45x    frame=  408 fps= 11 q=23.0 size=    1536KiB time=00:00:16.24 bitrate= 774.8kbits/s speed=0.45x    frame=  415 fps= 11 q=23.0 size=    1536KiB time=00:00:16.52 bitrate= 761.7kbits/s speed=0.452x    frame=  422 fps= 11 q=23.0 size=    1536KiB time=00:00:16.80 bitrate= 749.0kbits/s speed=0.453x    frame=  430 fps= 11 q=23.0 size=    1536KiB time=00:00:17.12 bitrate= 735.0kbits/s speed=0.455x    frame=  438 fps= 12 q=23.0 size=    1536KiB time=00:00:17.44 bitrate= 721.5kbits/s speed=0.458x    frame=  446 fps= 12 q=23.0 size=    1536KiB time=00:00:17.76 bitrate= 708.5kbits/s speed=0.46x    frame=  450 fps= 12 q=23.0 size=    1536KiB time=00:00:17.92 bitrate= 702.2kbits/s speed=0.458x    frame=  456 fps= 12 q=23.0 size=    1536KiB time=00:00:18.16 bitrate= 692.9kbits/s speed=0.459x    frame=  462 fps= 12 q=23.0 size=    1536KiB time=00:00:18.40 bitrate= 683.9kbits/s speed=0.459x    frame=  468 fps= 12 q=23.0 size=    1536KiB time=00:00:18.64 bitrate= 675.1kbits/s speed=0.459x    frame=  474 fps= 12 q=23.0 size=    1792KiB time=00:00:18.88 bitrate= 777.6kbits/s speed=0.459x    frame=  479 fps= 12 q=23.0 size=    1792KiB time=00:00:19.08 bitrate= 769.4kbits/s speed=0.459x    frame=  484 fps= 11 q=23.0 size=    1792KiB time=00:00:19.28 bitrate= 761.4kbits/s speed=0.458x    frame=  488 fps= 11 q=23.0 size=    1792KiB time=00:00:19.44 bitrate= 755.2kbits/s speed=0.456x    frame=  494 fps= 11 q=23.0 size=    1792KiB time=00:00:19.68 bitrate= 746.0kbits/s speed=0.457x    frame=  499 fps= 11 q=23.0 size=    1792KiB time=00:00:19.88 bitrate= 738.5kbits/s speed=0.456x    frame=  500 fps= 11 q=23.0 size=    1792KiB time=00:00:19.92 bitrate= 737.0kbits/s speed=0.452x    frame=  504 fps= 11 q=23.0 size=    2304KiB time=00:00:20.08 bitrate= 940.0kbits/s speed=0.45x    frame=  510 fps= 11 q=23.0 size=    2304KiB time=00:00:20.32 bitrate= 928.9kbits/s speed=0.451x    frame=  519 fps= 11 q=23.0 size=    2304KiB time=00:00:20.68 bitrate= 912.7kbits/s speed=0.453x    frame=  525 fps= 11 q=23.0 size=    2304KiB time=00:00:20.92 bitrate= 902.2kbits/s speed=0.454x    frame=  530 fps= 11 q=23.0 size=    2304KiB time=00:00:21.12 bitrate= 893.7kbits/s speed=0.453x    frame=  534 fps= 11 q=23.0 size=    2304KiB time=00:00:21.28 bitrate= 887.0kbits/s speed=0.452x    frame=  540 fps= 11 q=23.0 size=    2304KiB time=00:00:21.52 bitrate= 877.1kbits/s speed=0.452x    frame=  546 fps= 11 q=23.0 size=    2304KiB time=00:00:21.76 bitrate= 867.4kbits/s speed=0.452x    frame=  554 fps= 11 q=23.0 size=    2304KiB time=00:00:22.08 bitrate= 854.8kbits/s speed=0.454x    frame=  562 fps= 11 q=23.0 size=    2304KiB time=00:00:22.40 bitrate= 842.6kbits/s speed=0.456x    frame=  570 fps= 11 q=23.0 size=    2304KiB time=00:00:22.72 bitrate= 830.8kbits/s speed=0.458x    frame=  578 fps= 12 q=23.0 size=    2304KiB time=00:00:23.04 bitrate= 819.2kbits/s speed=0.46x    frame=  584 fps= 12 q=23.0 size=    2304KiB time=00:00:23.28 bitrate= 810.8kbits/s speed=0.46x    frame=  593 fps= 12 q=23.0 size=    2304KiB time=00:00:23.64 bitrate= 798.4kbits/s speed=0.462x    frame=  601 fps= 12 q=23.0 size=    2304KiB time=00:00:23.96 bitrate= 787.8kbits/s speed=0.464x    frame=  609 fps= 12 q=23.0 size=    2304KiB time=00:00:24.28 bitrate= 777.4kbits/s speed=0.466x    frame=  616 fps= 12 q=23.0 size=    2560KiB time=00:00:24.56 bitrate= 853.9kbits/s speed=0.467x    frame=  625 fps= 12 q=23.0 size=    2560KiB time=00:00:24.92 bitrate= 841.6kbits/s speed=0.469x    frame=  633 fps= 12 q=23.0 size=    2560KiB time=00:00:25.24 bitrate= 830.9kbits/s speed=0.471x    frame=  640 fps= 12 q=23.0 size=    2560KiB time=00:00:25.52 bitrate= 821.8kbits/s speed=0.471x    frame=  648 fps= 12 q=23.0 size=    2560KiB time=00:00:25.84 bitrate= 811.6kbits/s speed=0.473x    frame=  654 fps= 12 q=23.0 size=    2560KiB time=00:00:26.08 bitrate= 804.1kbits/s speed=0.473x    frame=  660 fps= 12 q=23.0 size=    2560KiB time=00:00:26.32 bitrate= 796.8kbits/s speed=0.473x    frame=  666 fps= 12 q=23.0 size=    2560KiB time=00:00:26.56 bitrate= 789.6kbits/s speed=0.473x    frame=  673 fps= 12 q=23.0 size=    2560KiB time=00:00:26.84 bitrate= 781.4kbits/s speed=0.474x    frame=  678 fps= 12 q=23.0 size=    2560KiB time=00:00:27.04 bitrate= 775.6kbits/s speed=0.473x    frame=  683 fps= 12 q=23.0 size=    2560KiB time=00:00:27.24 bitrate= 769.9kbits/s speed=0.473x    frame=  690 fps= 12 q=23.0 size=    2560KiB time=00:00:27.52 bitrate= 762.1kbits/s speed=0.473x    frame=  698 fps= 12 q=23.0 size=    2560KiB time=00:00:27.84 bitrate= 753.3kbits/s speed=0.475x    frame=  706 fps= 12 q=23.0 size=    2560KiB time=00:00:28.16 bitrate= 744.7kbits/s speed=0.476x    frame=  712 fps= 12 q=23.0 size=    2560KiB time=00:00:28.40 bitrate= 738.4kbits/s speed=0.476x    frame=  718 fps= 12 q=23.0 size=    2560KiB time=00:00:28.64 bitrate= 732.3kbits/s speed=0.476x    frame=  724 fps= 12 q=23.0 size=    2560KiB time=00:00:28.88 bitrate= 726.2kbits/s speed=0.476x    frame=  728 fps= 12 q=23.0 size=    2560KiB time=00:00:29.04 bitrate= 722.2kbits/s speed=0.475x    frame=  734 fps= 12 q=23.0 size=    2560KiB time=00:00:29.28 bitrate= 716.3kbits/s speed=0.475x    frame=  740 fps= 12 q=23.0 size=    2560KiB time=00:00:29.52 bitrate= 710.4kbits/s speed=0.475x    frame=  746 fps= 12 q=23.0 size=    2560KiB time=00:00:29.80 bitrate= 703.8kbits/s speed=0.476x    frame=  750 fps= 12 q=23.0 size=    2560KiB time=00:00:29.92 bitrate= 700.9kbits/s speed=0.474x    frame=  762 fps= 12 q=23.0 size=    3328KiB time=00:00:30.40 bitrate= 896.8kbits/s speed=0.478x    frame=  767 fps= 12 q=23.0 size=    3328KiB time=00:00:30.60 bitrate= 891.0kbits/s speed=0.477x    frame=  776 fps= 12 q=23.0 size=    3328KiB time=00:00:30.96 bitrate= 880.6kbits/s speed=0.479x    frame=  782 fps= 12 q=23.0 size=    3328KiB time=00:00:31.20 bitrate= 873.8kbits/s speed=0.479x    frame=  792 fps= 12 q=23.0 size=    3328KiB time=00:00:31.60 bitrate= 862.8kbits/s speed=0.481x    frame=  798 fps= 12 q=23.0 size=    3328KiB time=00:00:31.84 bitrate= 856.3kbits/s speed=0.481x    frame=  805 fps= 12 q=23.0 size=    3328KiB time=00:00:32.12 bitrate= 848.8kbits/s speed=0.482x    frame=  814 fps= 12 q=23.0 size=    3328KiB time=00:00:32.48 bitrate= 839.4kbits/s speed=0.484x    frame=  824 fps= 12 q=23.0 size=    3328KiB time=00:00:32.88 bitrate= 829.2kbits/s speed=0.486x    frame=  832 fps= 12 q=23.0 size=    3328KiB time=00:00:33.20 bitrate= 821.2kbits/s speed=0.487x    frame=  840 fps= 12 q=23.0 size=    3328KiB time=00:00:33.52 bitrate= 813.3kbits/s speed=0.488x    frame=  848 fps= 12 q=23.0 size=    3328KiB time=00:00:33.84 bitrate= 805.7kbits/s speed=0.489x    frame=  856 fps= 12 q=23.0 size=    3328KiB time=00:00:34.16 bitrate= 798.1kbits/s speed=0.49x    frame=  864 fps= 12 q=23.0 size=    3328KiB time=00:00:34.48 bitrate= 790.7kbits/s speed=0.491x    frame=  874 fps= 12 q=23.0 size=    3328KiB time=00:00:34.88 bitrate= 781.6kbits/s speed=0.494x    frame=  881 fps= 12 q=23.0 size=    3328KiB time=00:00:35.16 bitrate= 775.4kbits/s speed=0.494x    frame=  890 fps= 12 q=23.0 size=    3328KiB time=00:00:35.52 bitrate= 767.5kbits/s speed=0.496x    frame=  898 fps= 12 q=23.0 size=    3328KiB time=00:00:35.84 bitrate= 760.7kbits/s speed=0.497x    frame=  904 fps= 12 q=23.0 size=    3328KiB time=00:00:36.08 bitrate= 755.6kbits/s speed=0.497x    frame=  910 fps= 12 q=23.0 size=    3328KiB time=00:00:36.32 bitrate= 750.6kbits/s speed=0.496x    frame=  918 fps= 12 q=23.0 size=    3584KiB time=00:00:36.64 bitrate= 801.3kbits/s speed=0.497x    frame=  924 fps= 12 q=23.0 size=    3584KiB time=00:00:36.88 bitrate= 796.1kbits/s speed=0.497x    frame=  932 fps= 12 q=23.0 size=    3584KiB time=00:00:37.20 bitrate= 789.3kbits/s speed=0.498x    frame=  940 fps= 13 q=23.0 size=    3584KiB time=00:00:37.52 bitrate= 782.5kbits/s speed=0.499x    frame=  947 fps= 13 q=23.0 size=    3584KiB time=00:00:37.80 bitrate= 776.7kbits/s speed=0.499x    frame=  954 fps= 13 q=23.0 size=    3584KiB time=00:00:38.08 bitrate= 771.0kbits/s speed= 0.5x    frame=  962 fps= 13 q=23.0 size=    3584KiB time=00:00:38.40 bitrate= 764.6kbits/s speed=0.501x    frame=  968 fps= 13 q=23.0 size=    3584KiB time=00:00:38.64 bitrate= 759.8kbits/s speed=0.501x    frame=  975 fps= 13 q=23.0 size=    3584KiB time=00:00:38.92 bitrate= 754.4kbits/s speed=0.501x    frame=  982 fps= 13 q=23.0 size=    3584KiB time=00:00:39.20 bitrate= 749.0kbits/s speed=0.501x    frame=  988 fps= 13 q=23.0 size=    3584KiB time=00:00:39.44 bitrate= 744.4kbits/s speed=0.501x    frame=  994 fps= 13 q=23.0 size=    3584KiB time=00:00:39.68 bitrate= 739.9kbits/s speed=0.501x    frame= 1000 fps= 13 q=23.0 size=    3584KiB time=00:00:39.92 bitrate= 735.5kbits/s speed=0.501x    frame= 1002 fps= 12 q=23.0 size=    4096KiB time=00:00:40.00 bitrate= 838.9kbits/s speed=0.499x    frame= 1013 fps= 13 q=23.0 size=    4096KiB time=00:00:40.44 bitrate= 829.7kbits/s speed=0.501x    frame= 1022 fps= 13 q=23.0 size=    4096KiB time=00:00:40.80 bitrate= 822.4kbits/s speed=0.502x    frame= 1028 fps= 13 q=23.0 size=    4096KiB time=00:00:41.04 bitrate= 817.6kbits/s speed=0.502x    frame= 1036 fps= 13 q=23.0 size=    4096KiB time=00:00:41.36 bitrate= 811.3kbits/s speed=0.503x    frame= 1042 fps= 13 q=23.0 size=    4096KiB time=00:00:41.60 bitrate= 806.6kbits/s speed=0.503x    frame= 1048 fps= 13 q=23.0 size=    4096KiB time=00:00:41.84 bitrate= 802.0kbits/s speed=0.503x    frame= 1056 fps= 13 q=23.0 size=    4352KiB time=00:00:42.16 bitrate= 845.6kbits/s speed=0.504x    frame= 1062 fps= 13 q=23.0 size=    4352KiB time=00:00:42.40 bitrate= 840.8kbits/s speed=0.504x    frame= 1070 fps= 13 q=23.0 size=    4352KiB time=00:00:42.72 bitrate= 834.5kbits/s speed=0.504x    frame= 1078 fps= 13 q=23.0 size=    4352KiB time=00:00:43.04 bitrate= 828.3kbits/s speed=0.505x    frame= 1084 fps= 13 q=23.0 size=    4352KiB time=00:00:43.28 bitrate= 823.8kbits/s speed=0.505x    frame= 1090 fps= 13 q=23.0 size=    4352KiB time=00:00:43.52 bitrate= 819.2kbits/s speed=0.505x    frame= 1097 fps= 13 q=23.0 size=    4352KiB time=00:00:43.80 bitrate= 814.0kbits/s speed=0.505x    frame= 1104 fps= 13 q=23.0 size=    4352KiB time=00:00:44.08 bitrate= 808.8kbits/s speed=0.505x    frame= 1111 fps= 13 q=23.0 size=    4352KiB time=00:00:44.36 bitrate= 803.7kbits/s speed=0.506x    frame= 1118 fps= 13 q=23.0 size=    4352KiB time=00:00:44.64 bitrate= 798.7kbits/s speed=0.506x    frame= 1124 fps= 13 q=23.0 size=    4352KiB time=00:00:44.88 bitrate= 794.4kbits/s speed=0.506x    frame= 1132 fps= 13 q=23.0 size=    4352KiB time=00:00:45.20 bitrate= 788.8kbits/s speed=0.507x    frame= 1138 fps= 13 q=23.0 size=    4352KiB time=00:00:45.44 bitrate= 784.6kbits/s speed=0.506x    frame= 1146 fps= 13 q=23.0 size=    4352KiB time=00:00:45.76 bitrate= 779.1kbits/s speed=0.507x    frame= 1152 fps= 13 q=23.0 size=    4352KiB time=00:00:46.00 bitrate= 775.0kbits/s speed=0.507x    frame= 1159 fps= 13 q=23.0 size=    4352KiB time=00:00:46.28 bitrate= 770.4kbits/s speed=0.507x    frame= 1166 fps= 13 q=23.0 size=    4352KiB time=00:00:46.56 bitrate= 765.7kbits/s speed=0.508x    frame= 1174 fps= 13 q=23.0 size=    4352KiB time=00:00:46.88 bitrate= 760.5kbits/s speed=0.508x    frame= 1182 fps= 13 q=23.0 size=    4352KiB time=00:00:47.20 bitrate= 755.3kbits/s speed=0.509x    frame= 1188 fps= 13 q=23.0 size=    4352KiB time=00:00:47.44 bitrate= 751.5kbits/s speed=0.509x    frame= 1192 fps= 13 q=23.0 size=    4352KiB time=00:00:47.60 bitrate= 749.0kbits/s speed=0.508x    frame= 1198 fps= 13 q=23.0 size=    4352KiB time=00:00:47.84 bitrate= 745.2kbits/s speed=0.508x    frame= 1204 fps= 13 q=23.0 size=    4352KiB time=00:00:48.08 bitrate= 741.5kbits/s speed=0.508x    frame= 1208 fps= 13 q=23.0 size=    4352KiB time=00:00:48.24 bitrate= 739.1kbits/s speed=0.507x    frame= 1215 fps= 13 q=23.0 size=    4608KiB time=00:00:48.52 bitrate= 778.0kbits/s speed=0.507x    frame= 1222 fps= 13 q=23.0 size=    4608KiB time=00:00:48.80 bitrate= 773.5kbits/s speed=0.507x    frame= 1228 fps= 13 q=23.0 size=    4608KiB time=00:00:49.04 bitrate= 769.8kbits/s speed=0.507x    frame= 1235 fps= 13 q=23.0 size=    4608KiB time=00:00:49.32 bitrate= 765.4kbits/s speed=0.507x    frame= 1242 fps= 13 q=23.0 size=    4608KiB time=00:00:49.60 bitrate= 761.1kbits/s speed=0.507x    frame= 1249 fps= 13 q=23.0 size=    4608KiB time=00:00:49.88 bitrate= 756.8kbits/s speed=0.508x    frame= 1252 fps= 13 q=23.0 size=    5120KiB time=00:00:50.00 bitrate= 838.9kbits/s speed=0.506x    frame= 1262 fps= 13 q=23.0 size=    5120KiB time=00:00:50.40 bitrate= 832.2kbits/s speed=0.508x    frame= 1270 fps= 13 q=23.0 size=    5120KiB time=00:00:50.72 bitrate= 827.0kbits/s speed=0.509x    frame= 1276 fps= 13 q=23.0 size=    5120KiB time=00:00:50.96 bitrate= 823.1kbits/s speed=0.508x    frame= 1284 fps= 13 q=23.0 size=    5120KiB time=00:00:51.28 bitrate= 817.9kbits/s speed=0.509x    frame= 1290 fps= 13 q=23.0 size=    5120KiB time=00:00:51.52 bitrate= 814.1kbits/s speed=0.509x    frame= 1297 fps= 13 q=23.0 size=    5120KiB time=00:00:51.80 bitrate= 809.7kbits/s speed=0.509x    frame= 1304 fps= 13 q=23.0 size=    5120KiB time=00:00:52.08 bitrate= 805.4kbits/s speed=0.509x    frame= 1311 fps= 13 q=23.0 size=    5120KiB time=00:00:52.36 bitrate= 801.1kbits/s speed=0.51x    frame= 1318 fps= 13 q=23.0 size=    5120KiB time=00:00:52.64 bitrate= 796.8kbits/s speed=0.51x    frame= 1325 fps= 13 q=23.0 size=    5120KiB time=00:00:52.92 bitrate= 792.6kbits/s speed=0.51x    frame= 1332 fps= 13 q=23.0 size=    5120KiB time=00:00:53.20 bitrate= 788.4kbits/s speed=0.51x    frame= 1338 fps= 13 q=23.0 size=    5120KiB time=00:00:53.44 bitrate= 784.9kbits/s speed=0.51x    frame= 1344 fps= 13 q=23.0 size=    5120KiB time=00:00:53.68 bitrate= 781.4kbits/s speed=0.51x    frame= 1350 fps= 13 q=23.0 size=    5120KiB time=00:00:53.92 bitrate= 777.9kbits/s speed=0.51x    frame= 1358 fps= 13 q=23.0 size=    5120KiB time=00:00:54.24 bitrate= 773.3kbits/s speed=0.51x    frame= 1364 fps= 13 q=23.0 size=    5376KiB time=00:00:54.48 bitrate= 808.4kbits/s speed=0.51x    frame= 1372 fps= 13 q=23.0 size=    5376KiB time=00:00:54.80 bitrate= 803.7kbits/s speed=0.511x    frame= 1380 fps= 13 q=23.0 size=    5376KiB time=00:00:55.12 bitrate= 799.0kbits/s speed=0.511x    frame= 1386 fps= 13 q=23.0 size=    5376KiB time=00:00:55.36 bitrate= 795.5kbits/s speed=0.511x    frame= 1392 fps= 13 q=23.0 size=    5376KiB time=00:00:55.60 bitrate= 792.1kbits/s speed=0.511x    frame= 1400 fps= 13 q=23.0 size=    5376KiB time=00:00:55.92 bitrate= 787.6kbits/s speed=0.512x    frame= 1407 fps= 13 q=23.0 size=    5376KiB time=00:00:56.20 bitrate= 783.6kbits/s speed=0.512x    frame= 1414 fps= 13 q=23.0 size=    5376KiB time=00:00:56.48 bitrate= 779.8kbits/s speed=0.512x    frame= 1420 fps= 13 q=23.0 size=    5376KiB time=00:00:56.72 bitrate= 776.5kbits/s speed=0.512x    frame= 1428 fps= 13 q=23.0 size=    5376KiB time=00:00:57.04 bitrate= 772.1kbits/s speed=0.513x    frame= 1436 fps= 13 q=23.0 size=    5376KiB time=00:00:57.36 bitrate= 767.8kbits/s speed=0.513x    frame= 1442 fps= 13 q=23.0 size=    5376KiB time=00:00:57.60 bitrate= 764.6kbits/s speed=0.513x    frame= 1450 fps= 13 q=23.0 size=    5376KiB time=00:00:57.92 bitrate= 760.4kbits/s speed=0.513x    frame= 1456 fps= 13 q=23.0 size=    5376KiB time=00:00:58.16 bitrate= 757.2kbits/s speed=0.513x    frame= 1464 fps= 13 q=23.0 size=    5376KiB time=00:00:58.48 bitrate= 753.1kbits/s speed=0.514x    frame= 1470 fps= 13 q=23.0 size=    5376KiB time=00:00:58.72 bitrate= 750.0kbits/s speed=0.514x    frame= 1478 fps= 13 q=23.0 size=    5376KiB time=00:00:59.04 bitrate= 745.9kbits/s speed=0.514x    frame= 1484 fps= 13 q=23.0 size=    5376KiB time=00:00:59.28 bitrate= 742.9kbits/s speed=0.514x    frame= 1490 fps= 13 q=23.0 size=    5376KiB time=00:00:59.52 bitrate= 739.9kbits/s speed=0.514x    frame= 1496 fps= 13 q=20.0 size=    5376KiB time=00:00:59.76 bitrate= 737.0kbits/s speed=0.514x    frame= 1500 fps= 13 q=23.0 size=    5376KiB time=00:00:59.92 bitrate= 735.0kbits/s speed=0.513x    frame= 1511 fps= 13 q=23.0 size=    6144KiB time=00:01:00.36 bitrate= 833.9kbits/s speed=0.515x    frame= 1518 fps= 13 q=23.0 size=    6144KiB time=00:01:00.64 bitrate= 830.0kbits/s speed=0.515x    frame= 1524 fps= 13 q=23.0 size=    6144KiB time=00:01:00.88 bitrate= 826.7kbits/s speed=0.515x    frame= 1532 fps= 13 q=23.0 size=    6144KiB time=00:01:01.20 bitrate= 822.4kbits/s speed=0.515x    frame= 1538 fps= 13 q=23.0 size=    6144KiB time=00:01:01.44 bitrate= 819.2kbits/s speed=0.515x    frame= 1546 fps= 13 q=23.0 size=    6144KiB time=00:01:01.76 bitrate= 815.0kbits/s speed=0.515x    frame= 1553 fps= 13 q=23.0 size=    6144KiB time=00:01:02.04 bitrate= 811.3kbits/s speed=0.516x    frame= 1560 fps= 13 q=23.0 size=    6144KiB time=00:01:02.32 bitrate= 807.6kbits/s speed=0.516x    frame= 1568 fps= 13 q=23.0 size=    6144KiB time=00:01:02.64 bitrate= 803.5kbits/s speed=0.516x    frame= 1574 fps= 13 q=23.0 size=    6144KiB time=00:01:02.88 bitrate= 800.4kbits/s speed=0.516x    frame= 1582 fps= 13 q=23.0 size=    6144KiB time=00:01:03.20 bitrate= 796.4kbits/s speed=0.517x    frame= 1588 fps= 13 q=23.0 size=    6144KiB time=00:01:03.44 bitrate= 793.4kbits/s speed=0.516x    frame= 1595 fps= 13 q=23.0 size=    6144KiB time=00:01:03.72 bitrate= 789.9kbits/s speed=0.517x    frame= 1602 fps= 13 q=23.0 size=    6144KiB time=00:01:04.00 bitrate= 786.4kbits/s speed=0.517x    frame= 1610 fps= 13 q=23.0 size=    6144KiB time=00:01:04.32 bitrate= 782.5kbits/s speed=0.517x    frame= 1616 fps= 13 q=23.0 size=    6144KiB time=00:01:04.56 bitrate= 779.6kbits/s speed=0.517x    frame= 1624 fps= 13 q=23.0 size=    6144KiB time=00:01:04.88 bitrate= 775.8kbits/s speed=0.518x    frame= 1630 fps= 13 q=23.0 size=    6144KiB time=00:01:05.12 bitrate= 772.9kbits/s speed=0.517x    frame= 1636 fps= 13 q=23.0 size=    6144KiB time=00:01:05.36 bitrate= 770.1kbits/s speed=0.517x    frame= 1643 fps= 13 q=23.0 size=    6144KiB time=00:01:05.64 bitrate= 766.8kbits/s speed=0.517x    frame= 1650 fps= 13 q=23.0 size=    6144KiB time=00:01:05.92 bitrate= 763.5kbits/s speed=0.518x    frame= 1656 fps= 13 q=23.0 size=    6144KiB time=00:01:06.16 bitrate= 760.8kbits/s speed=0.517x    frame= 1662 fps= 13 q=23.0 size=    6400KiB time=00:01:06.40 bitrate= 789.6kbits/s speed=0.517x    frame= 1669 fps= 13 q=23.0 size=    6400KiB time=00:01:06.68 bitrate= 786.3kbits/s speed=0.518x    frame= 1676 fps= 13 q=23.0 size=    6400KiB time=00:01:06.96 bitrate= 783.0kbits/s speed=0.518x    frame= 1682 fps= 13 q=23.0 size=    6400KiB time=00:01:07.20 bitrate= 780.2kbits/s speed=0.518x    frame= 1689 fps= 13 q=23.0 size=    6400KiB time=00:01:07.48 bitrate= 777.0kbits/s speed=0.518x    frame= 1696 fps= 13 q=23.0 size=    6400KiB time=00:01:07.76 bitrate= 773.7kbits/s speed=0.518x    frame= 1702 fps= 13 q=23.0 size=    6400KiB time=00:01:08.00 bitrate= 771.0kbits/s speed=0.518x    frame= 1708 fps= 13 q=23.0 size=    6400KiB time=00:01:08.24 bitrate= 768.3kbits/s speed=0.518x    frame= 1714 fps= 13 q=23.0 size=    6400KiB time=00:01:08.48 bitrate= 765.6kbits/s speed=0.517x    frame= 1722 fps= 13 q=23.0 size=    6400KiB time=00:01:08.80 bitrate= 762.1kbits/s speed=0.518x    frame= 1730 fps= 13 q=23.0 size=    6400KiB time=00:01:09.12 bitrate= 758.5kbits/s speed=0.518x    frame= 1738 fps= 13 q=23.0 size=    6400KiB time=00:01:09.44 bitrate= 755.0kbits/s speed=0.519x    frame= 1748 fps= 13 q=23.0 size=    6400KiB time=00:01:09.84 bitrate= 750.7kbits/s speed=0.52x    frame= 1750 fps= 13 q=23.0 size=    6400KiB time=00:01:09.92 bitrate= 749.8kbits/s speed=0.518x    frame= 1764 fps= 13 q=23.0 size=    6912KiB time=00:01:10.48 bitrate= 803.4kbits/s speed=0.521x    frame= 1774 fps= 13 q=23.0 size=    6912KiB time=00:01:10.88 bitrate= 798.9kbits/s speed=0.522x    frame= 1782 fps= 13 q=23.0 size=    6912KiB time=00:01:11.20 bitrate= 795.3kbits/s speed=0.522x    frame= 1792 fps= 13 q=23.0 size=    6912KiB time=00:01:11.60 bitrate= 790.8kbits/s speed=0.523x    frame= 1800 fps= 13 q=23.0 size=    7168KiB time=00:01:11.92 bitrate= 816.5kbits/s speed=0.524x    frame= 1810 fps= 13 q=23.0 size=    7168KiB time=00:01:12.32 bitrate= 812.0kbits/s speed=0.525x    frame= 1819 fps= 13 q=23.0 size=    7168KiB time=00:01:12.68 bitrate= 807.9kbits/s speed=0.525x    frame= 1828 fps= 13 q=23.0 size=    7168KiB time=00:01:13.04 bitrate= 804.0kbits/s speed=0.526x    frame= 1837 fps= 13 q=23.0 size=    7168KiB time=00:01:13.40 bitrate= 800.0kbits/s speed=0.527x    frame= 1844 fps= 13 q=23.0 size=    7168KiB time=00:01:13.68 bitrate= 797.0kbits/s speed=0.527x    frame= 1853 fps= 13 q=23.0 size=    7168KiB time=00:01:14.04 bitrate= 793.1kbits/s speed=0.527x    frame= 1863 fps= 13 q=23.0 size=    7168KiB time=00:01:14.44 bitrate= 788.8kbits/s speed=0.528x    frame= 1871 fps= 13 q=23.0 size=    7168KiB time=00:01:14.76 bitrate= 785.5kbits/s speed=0.529x    frame= 1880 fps= 13 q=23.0 size=    7168KiB time=00:01:15.12 bitrate= 781.7kbits/s speed=0.529x    frame= 1890 fps= 13 q=23.0 size=    7168KiB time=00:01:15.52 bitrate= 777.6kbits/s speed=0.53x    frame= 1898 fps= 13 q=23.0 size=    7168KiB time=00:01:15.84 bitrate= 774.3kbits/s speed=0.531x    frame= 1908 fps= 13 q=23.0 size=    7168KiB time=00:01:16.24 bitrate= 770.2kbits/s speed=0.532x    frame= 1917 fps= 13 q=23.0 size=    7168KiB time=00:01:16.60 bitrate= 766.6kbits/s speed=0.532x    frame= 1926 fps= 13 q=23.0 size=    7168KiB time=00:01:16.96 bitrate= 763.0kbits/s speed=0.533x    frame= 1936 fps= 13 q=23.0 size=    7168KiB time=00:01:17.36 bitrate= 759.1kbits/s speed=0.534x    frame= 1944 fps= 13 q=23.0 size=    7168KiB time=00:01:17.68 bitrate= 755.9kbits/s speed=0.534x    frame= 1954 fps= 13 q=23.0 size=    7424KiB time=00:01:18.08 bitrate= 778.9kbits/s speed=0.535x    frame= 1962 fps= 13 q=23.0 size=    7424KiB time=00:01:18.40 bitrate= 775.7kbits/s speed=0.535x    frame= 1972 fps= 13 q=23.0 size=    7424KiB time=00:01:18.80 bitrate= 771.8kbits/s speed=0.536x    frame= 1981 fps= 13 q=23.0 size=    7424KiB time=00:01:19.16 bitrate= 768.3kbits/s speed=0.537x    frame= 1990 fps= 13 q=23.0 size=    7424KiB time=00:01:19.52 bitrate= 764.8kbits/s speed=0.538x    frame= 1999 fps= 13 q=23.0 size=    7424KiB time=00:01:19.88 bitrate= 761.4kbits/s speed=0.538x    frame= 2005 fps= 13 q=23.0 size=    7936KiB time=00:01:20.12 bitrate= 811.4kbits/s speed=0.538x    frame= 2014 fps= 13 q=23.0 size=    7936KiB time=00:01:20.48 bitrate= 807.8kbits/s speed=0.539x    frame= 2024 fps= 14 q=23.0 size=    7936KiB time=00:01:20.92 bitrate= 803.4kbits/s speed=0.54x    frame= 2034 fps= 14 q=23.0 size=    7936KiB time=00:01:21.28 bitrate= 799.9kbits/s speed=0.54x    frame= 2042 fps= 14 q=23.0 size=    7936KiB time=00:01:21.60 bitrate= 796.7kbits/s speed=0.541x    frame= 2052 fps= 14 q=23.0 size=    7936KiB time=00:01:22.00 bitrate= 792.8kbits/s speed=0.542x    frame= 2061 fps= 14 q=23.0 size=    7936KiB time=00:01:22.36 bitrate= 789.4kbits/s speed=0.542x    frame= 2070 fps= 14 q=23.0 size=    7936KiB time=00:01:22.72 bitrate= 785.9kbits/s speed=0.543x    frame= 2080 fps= 14 q=23.0 size=    7936KiB time=00:01:23.12 bitrate= 782.1kbits/s speed=0.544x    frame= 2088 fps= 14 q=23.0 size=    7936KiB time=00:01:23.44 bitrate= 779.1kbits/s speed=0.544x    frame= 2097 fps= 14 q=23.0 size=    8192KiB time=00:01:23.80 bitrate= 800.8kbits/s speed=0.544x    frame= 2106 fps= 14 q=23.0 size=    8192KiB time=00:01:24.16 bitrate= 797.4kbits/s speed=0.545x    frame= 2116 fps= 14 q=23.0 size=    8192KiB time=00:01:24.56 bitrate= 793.6kbits/s speed=0.546x    frame= 2124 fps= 14 q=23.0 size=    8192KiB time=00:01:24.88 bitrate= 790.6kbits/s speed=0.546x    frame= 2133 fps= 14 q=23.0 size=    8192KiB time=00:01:25.24 bitrate= 787.3kbits/s speed=0.547x    frame= 2142 fps= 14 q=23.0 size=    8192KiB time=00:01:25.60 bitrate= 784.0kbits/s speed=0.547x    frame= 2152 fps= 14 q=23.0 size=    8192KiB time=00:01:26.00 bitrate= 780.3kbits/s speed=0.548x    frame= 2161 fps= 14 q=23.0 size=    8192KiB time=00:01:26.36 bitrate= 777.1kbits/s speed=0.549x    frame= 2169 fps= 14 q=23.0 size=    8192KiB time=00:01:26.68 bitrate= 774.2kbits/s speed=0.549x    frame= 2178 fps= 14 q=23.0 size=    8192KiB time=00:01:27.04 bitrate= 771.0kbits/s speed=0.549x    frame= 2188 fps= 14 q=23.0 size=    8192KiB time=00:01:27.44 bitrate= 767.5kbits/s speed=0.55x    frame= 2196 fps= 14 q=23.0 size=    8192KiB time=00:01:27.76 bitrate= 764.7kbits/s speed=0.55x    frame= 2206 fps= 14 q=23.0 size=    8192KiB time=00:01:28.16 bitrate= 761.2kbits/s speed=0.551x    frame= 2214 fps= 14 q=23.0 size=    8192KiB time=00:01:28.48 bitrate= 758.5kbits/s speed=0.551x    frame= 2224 fps= 14 q=23.0 size=    8192KiB time=00:01:28.88 bitrate= 755.1kbits/s speed=0.552x    frame= 2232 fps= 14 q=23.0 size=    8192KiB time=00:01:29.20 bitrate= 752.3kbits/s speed=0.553x    frame= 2242 fps= 14 q=23.0 size=    8192KiB time=00:01:29.60 bitrate= 749.0kbits/s speed=0.553x    frame= 2250 fps= 14 q=23.0 size=    8448KiB time=00:01:29.92 bitrate= 769.6kbits/s speed=0.554x    frame= 2256 fps= 14 q=23.0 size=    8960KiB time=00:01:30.16 bitrate= 814.1kbits/s speed=0.553x    frame= 2266 fps= 14 q=23.0 size=    8960KiB time=00:01:30.56 bitrate= 810.5kbits/s speed=0.554x    frame= 2275 fps= 14 q=23.0 size=    8960KiB time=00:01:30.92 bitrate= 807.3kbits/s speed=0.555x    frame= 2284 fps= 14 q=23.0 size=    8960KiB time=00:01:31.28 bitrate= 804.1kbits/s speed=0.555x    frame= 2292 fps= 14 q=23.0 size=    8960KiB time=00:01:31.60 bitrate= 801.3kbits/s speed=0.555x    frame= 2301 fps= 14 q=23.0 size=    8960KiB time=00:01:31.96 bitrate= 798.2kbits/s speed=0.556x    frame= 2310 fps= 14 q=23.0 size=    8960KiB time=00:01:32.32 bitrate= 795.1kbits/s speed=0.556x    frame= 2320 fps= 14 q=23.0 size=    8960KiB time=00:01:32.72 bitrate= 791.6kbits/s speed=0.557x    frame= 2328 fps= 14 q=23.0 size=    8960KiB time=00:01:33.04 bitrate= 788.9kbits/s speed=0.557x    frame= 2338 fps= 14 q=23.0 size=    8960KiB time=00:01:33.44 bitrate= 785.5kbits/s speed=0.558x    frame= 2346 fps= 14 q=23.0 size=    8960KiB time=00:01:33.76 bitrate= 782.9kbits/s speed=0.558x    frame= 2356 fps= 14 q=23.0 size=    8960KiB time=00:01:34.16 bitrate= 779.5kbits/s speed=0.559x    frame= 2364 fps= 14 q=23.0 size=    8960KiB time=00:01:34.48 bitrate= 776.9kbits/s speed=0.559x    frame= 2374 fps= 14 q=23.0 size=    8960KiB time=00:01:34.88 bitrate= 773.6kbits/s speed=0.56x    frame= 2382 fps= 14 q=23.0 size=    8960KiB time=00:01:35.20 bitrate= 771.0kbits/s speed=0.56x    frame= 2390 fps= 14 q=23.0 size=    9216KiB time=00:01:35.56 bitrate= 790.1kbits/s speed=0.561x    frame= 2400 fps= 14 q=23.0 size=    9216KiB time=00:01:35.92 bitrate= 787.1kbits/s speed=0.561x    frame= 2409 fps= 14 q=23.0 size=    9216KiB time=00:01:36.28 bitrate= 784.1kbits/s speed=0.562x    frame= 2418 fps= 14 q=23.0 size=    9216KiB time=00:01:36.64 bitrate= 781.2kbits/s speed=0.562x    frame= 2428 fps= 14 q=23.0 size=    9216KiB time=00:01:37.04 bitrate= 778.0kbits/s speed=0.563x    frame= 2436 fps= 14 q=23.0 size=    9216KiB time=00:01:37.36 bitrate= 775.5kbits/s speed=0.563x    frame= 2445 fps= 14 q=23.0 size=    9216KiB time=00:01:37.72 bitrate= 772.6kbits/s speed=0.563x    frame= 2454 fps= 14 q=23.0 size=    9216KiB time=00:01:38.08 bitrate= 769.8kbits/s speed=0.564x    frame= 2464 fps= 14 q=23.0 size=    9216KiB time=00:01:38.48 bitrate= 766.6kbits/s speed=0.564x    frame= 2472 fps= 14 q=23.0 size=    9216KiB time=00:01:38.80 bitrate= 764.1kbits/s speed=0.565x    frame= 2482 fps= 14 q=23.0 size=    9216KiB time=00:01:39.20 bitrate= 761.1kbits/s speed=0.565x    frame= 2490 fps= 14 q=23.0 size=    9216KiB time=00:01:39.52 bitrate= 758.6kbits/s speed=0.566x    frame= 2499 fps= 14 q=23.0 size=    9216KiB time=00:01:39.88 bitrate= 755.9kbits/s speed=0.566x    frame= 2506 fps= 14 q=23.0 size=    9728KiB time=00:01:40.16 bitrate= 795.6kbits/s speed=0.566x    frame= 2514 fps= 14 q=23.0 size=    9728KiB time=00:01:40.48 bitrate= 793.1kbits/s speed=0.566x    frame= 2526 fps= 14 q=23.0 size=    9728KiB time=00:01:40.96 bitrate= 789.3kbits/s speed=0.567x    frame= 2534 fps= 14 q=23.0 size=    9984KiB time=00:01:41.28 bitrate= 807.6kbits/s speed=0.567x    frame= 2544 fps= 14 q=23.0 size=    9984KiB time=00:01:41.68 bitrate= 804.4kbits/s speed=0.568x    frame= 2552 fps= 14 q=23.0 size=    9984KiB time=00:01:42.00 bitrate= 801.9kbits/s speed=0.568x    frame= 2562 fps= 14 q=23.0 size=    9984KiB time=00:01:42.40 bitrate= 798.7kbits/s speed=0.569x    frame= 2570 fps= 14 q=23.0 size=    9984KiB time=00:01:42.72 bitrate= 796.2kbits/s speed=0.569x    frame= 2580 fps= 14 q=23.0 size=    9984KiB time=00:01:43.12 bitrate= 793.1kbits/s speed=0.57x    frame= 2588 fps= 14 q=23.0 size=    9984KiB time=00:01:43.44 bitrate= 790.7kbits/s speed=0.57x    frame= 2598 fps= 14 q=23.0 size=    9984KiB time=00:01:43.84 bitrate= 787.6kbits/s speed=0.571x    frame= 2607 fps= 14 q=23.0 size=    9984KiB time=00:01:44.20 bitrate= 784.9kbits/s speed=0.571x    frame= 2616 fps= 14 q=23.0 size=    9984KiB time=00:01:44.56 bitrate= 782.2kbits/s speed=0.571x    frame= 2624 fps= 14 q=23.0 size=    9984KiB time=00:01:44.88 bitrate= 779.8kbits/s speed=0.572x    frame= 2634 fps= 14 q=23.0 size=    9984KiB time=00:01:45.28 bitrate= 776.9kbits/s speed=0.572x    frame= 2643 fps= 14 q=23.0 size=    9984KiB time=00:01:45.64 bitrate= 774.2kbits/s speed=0.573x    frame= 2652 fps= 14 q=23.0 size=    9984KiB time=00:01:46.00 bitrate= 771.6kbits/s speed=0.573x    frame= 2660 fps= 14 q=23.0 size=    9984KiB time=00:01:46.32 bitrate= 769.3kbits/s speed=0.573x    frame= 2670 fps= 14 q=23.0 size=    9984KiB time=00:01:46.72 bitrate= 766.4kbits/s speed=0.574x    frame= 2680 fps= 14 q=23.0 size=   10240KiB time=00:01:47.12 bitrate= 783.1kbits/s speed=0.574x    frame= 2688 fps= 14 q=23.0 size=   10240KiB time=00:01:47.44 bitrate= 780.8kbits/s speed=0.575x    frame= 2698 fps= 14 q=23.0 size=   10240KiB time=00:01:47.84 bitrate= 777.9kbits/s speed=0.575x    frame= 2706 fps= 14 q=23.0 size=   10240KiB time=00:01:48.16 bitrate= 775.6kbits/s speed=0.575x    frame= 2715 fps= 14 q=23.0 size=   10240KiB time=00:01:48.52 bitrate= 773.0kbits/s speed=0.576x    frame= 2724 fps= 14 q=23.0 size=   10240KiB time=00:01:48.88 bitrate= 770.4kbits/s speed=0.576x    frame= 2733 fps= 14 q=23.0 size=   10240KiB time=00:01:49.24 bitrate= 767.9kbits/s speed=0.576x    frame= 2742 fps= 14 q=23.0 size=   10240KiB time=00:01:49.60 bitrate= 765.4kbits/s speed=0.577x    frame= 2750 fps= 14 q=23.0 size=   10240KiB time=00:01:49.92 bitrate= 763.2kbits/s speed=0.577x    frame= 2757 fps= 14 q=23.0 size=   10752KiB time=00:01:50.20 bitrate= 799.3kbits/s speed=0.577x    frame= 2768 fps= 14 q=23.0 size=   10752KiB time=00:01:50.64 bitrate= 796.1kbits/s speed=0.578x    frame= 2777 fps= 14 q=23.0 size=   10752KiB time=00:01:51.00 bitrate= 793.5kbits/s speed=0.578x    frame= 2786 fps= 14 q=23.0 size=   10752KiB time=00:01:51.36 bitrate= 791.0kbits/s speed=0.578x    frame= 2796 fps= 14 q=23.0 size=   10752KiB time=00:01:51.76 bitrate= 788.1kbits/s speed=0.579x    frame= 2804 fps= 14 q=23.0 size=   10752KiB time=00:01:52.08 bitrate= 785.9kbits/s speed=0.579x    frame= 2814 fps= 15 q=23.0 size=   10752KiB time=00:01:52.48 bitrate= 783.1kbits/s speed=0.58x    frame= 2823 fps= 15 q=23.0 size=   11008KiB time=00:01:52.84 bitrate= 799.2kbits/s speed=0.58x    frame= 2832 fps= 15 q=23.0 size=   11008KiB time=00:01:53.20 bitrate= 796.6kbits/s speed=0.58x    frame= 2840 fps= 15 q=23.0 size=   11008KiB time=00:01:53.52 bitrate= 794.4kbits/s speed=0.581x    frame= 2850 fps= 15 q=23.0 size=   11008KiB time=00:01:53.92 bitrate= 791.6kbits/s speed=0.581x    frame= 2860 fps= 15 q=23.0 size=   11008KiB time=00:01:54.32 bitrate= 788.8kbits/s speed=0.582x    frame= 2868 fps= 15 q=23.0 size=   11008KiB time=00:01:54.64 bitrate= 786.6kbits/s speed=0.582x    frame= 2877 fps= 15 q=23.0 size=   11008KiB time=00:01:55.00 bitrate= 784.2kbits/s speed=0.582x    frame= 2886 fps= 15 q=23.0 size=   11008KiB time=00:01:55.36 bitrate= 781.7kbits/s speed=0.582x    frame= 2896 fps= 15 q=23.0 size=   11008KiB time=00:01:55.76 bitrate= 779.0kbits/s speed=0.583x    frame= 2904 fps= 15 q=23.0 size=   11008KiB time=00:01:56.08 bitrate= 776.9kbits/s speed=0.583x    frame= 2914 fps= 15 q=23.0 size=   11008KiB time=00:01:56.48 bitrate= 774.2kbits/s speed=0.584x    frame= 2922 fps= 15 q=23.0 size=   11008KiB time=00:01:56.80 bitrate= 772.1kbits/s speed=0.584x    frame= 2931 fps= 15 q=23.0 size=   11008KiB time=00:01:57.16 bitrate= 769.7kbits/s speed=0.584x    frame= 2940 fps= 15 q=23.0 size=   11008KiB time=00:01:57.52 bitrate= 767.3kbits/s speed=0.585x    frame= 2949 fps= 15 q=23.0 size=   11008KiB time=00:01:57.88 bitrate= 765.0kbits/s speed=0.585x    frame= 2958 fps= 15 q=23.0 size=   11008KiB time=00:01:58.24 bitrate= 762.7kbits/s speed=0.585x    frame= 2968 fps= 15 q=23.0 size=   11008KiB time=00:01:58.64 bitrate= 760.1kbits/s speed=0.586x    frame= 2976 fps= 15 q=23.0 size=   11264KiB time=00:01:58.96 bitrate= 775.7kbits/s speed=0.586x    frame= 2986 fps= 15 q=23.0 size=   11264KiB time=00:01:59.36 bitrate= 773.1kbits/s speed=0.586x    frame= 2994 fps= 15 q=23.0 size=   11264KiB time=00:01:59.68 bitrate= 771.0kbits/s speed=0.587x    frame= 3000 fps= 15 q=23.0 size=   11264KiB time=00:01:59.92 bitrate= 769.5kbits/s speed=0.586x    frame= 3010 fps= 15 q=23.0 size=   11776KiB time=00:02:00.32 bitrate= 801.8kbits/s speed=0.587x    frame= 3020 fps= 15 q=23.0 size=   11776KiB time=00:02:00.72 bitrate= 799.1kbits/s speed=0.587x    frame= 3030 fps= 15 q=23.0 size=   11776KiB time=00:02:01.12 bitrate= 796.5kbits/s speed=0.588x    frame= 3038 fps= 15 q=23.0 size=   11776KiB time=00:02:01.44 bitrate= 794.4kbits/s speed=0.588x    frame= 3048 fps= 15 q=23.0 size=   11776KiB time=00:02:01.84 bitrate= 791.8kbits/s speed=0.588x    frame= 3056 fps= 15 q=23.0 size=   11776KiB time=00:02:02.16 bitrate= 789.7kbits/s speed=0.589x    frame= 3066 fps= 15 q=23.0 size=   11776KiB time=00:02:02.56 bitrate= 787.1kbits/s speed=0.589x    frame= 3074 fps= 15 q=23.0 size=   11776KiB time=00:02:02.88 bitrate= 785.1kbits/s speed=0.589x    frame= 3084 fps= 15 q=23.0 size=   11776KiB time=00:02:03.28 bitrate= 782.5kbits/s speed=0.59x    frame= 3094 fps= 15 q=23.0 size=   11776KiB time=00:02:03.68 bitrate= 780.0kbits/s speed=0.59x    frame= 3102 fps= 15 q=23.0 size=   11776KiB time=00:02:04.00 bitrate= 778.0kbits/s speed=0.59x    frame= 3110 fps= 15 q=23.0 size=   11776KiB time=00:02:04.32 bitrate= 776.0kbits/s speed=0.59x    frame= 3120 fps= 15 q=23.0 size=   12032KiB time=00:02:04.72 bitrate= 790.3kbits/s speed=0.591x    frame= 3128 fps= 15 q=23.0 size=   12032KiB time=00:02:05.04 bitrate= 788.3kbits/s speed=0.591x    frame= 3138 fps= 15 q=23.0 size=   12032KiB time=00:02:05.44 bitrate= 785.8kbits/s speed=0.591x    frame= 3147 fps= 15 q=23.0 size=   12032KiB time=00:02:05.80 bitrate= 783.5kbits/s speed=0.592x    frame= 3156 fps= 15 q=23.0 size=   12032KiB time=00:02:06.16 bitrate= 781.3kbits/s speed=0.592x    frame= 3165 fps= 15 q=23.0 size=   12032KiB time=00:02:06.52 bitrate= 779.1kbits/s speed=0.592x    frame= 3174 fps= 15 q=23.0 size=   12032KiB time=00:02:06.88 bitrate= 776.8kbits/s speed=0.593x    frame= 3184 fps= 15 q=23.0 size=   12032KiB time=00:02:07.28 bitrate= 774.4kbits/s speed=0.593x    frame= 3192 fps= 15 q=23.0 size=   12032KiB time=00:02:07.60 bitrate= 772.5kbits/s speed=0.593x    frame= 3200 fps= 15 q=23.0 size=   12032KiB time=00:02:07.92 bitrate= 770.5kbits/s speed=0.593x    frame= 3210 fps= 15 q=23.0 size=   12032KiB time=00:02:08.32 bitrate= 768.1kbits/s speed=0.594x    frame= 3218 fps= 15 q=23.0 size=   12032KiB time=00:02:08.64 bitrate= 766.2kbits/s speed=0.594x    frame= 3228 fps= 15 q=23.0 size=   12032KiB time=00:02:09.04 bitrate= 763.8kbits/s speed=0.594x    frame= 3236 fps= 15 q=23.0 size=   12032KiB time=00:02:09.36 bitrate= 762.0kbits/s speed=0.595x    frame= 3244 fps= 15 q=23.0 size=   12032KiB time=00:02:09.68 bitrate= 760.1kbits/s speed=0.595x    frame= 3250 fps= 15 q=23.0 size=   12032KiB time=00:02:09.92 bitrate= 758.7kbits/s speed=0.594x    frame= 3260 fps= 15 q=23.0 size=   12800KiB time=00:02:10.32 bitrate= 804.6kbits/s speed=0.595x    frame= 3272 fps= 15 q=23.0 size=   12800KiB time=00:02:10.80 bitrate= 801.7kbits/s speed=0.596x    frame= 3281 fps= 15 q=23.0 size=   12800KiB time=00:02:11.16 bitrate= 799.5kbits/s speed=0.596x    frame= 3290 fps= 15 q=23.0 size=   12800KiB time=00:02:11.52 bitrate= 797.3kbits/s speed=0.596x    frame= 3298 fps= 15 q=23.0 size=   12800KiB time=00:02:11.84 bitrate= 795.3kbits/s speed=0.596x    frame= 3308 fps= 15 q=23.0 size=   12800KiB time=00:02:12.24 bitrate= 792.9kbits/s speed=0.597x    frame= 3318 fps= 15 q=23.0 size=   12800KiB time=00:02:12.64 bitrate= 790.5kbits/s speed=0.597x    frame= 3326 fps= 15 q=23.0 size=   12800KiB time=00:02:12.96 bitrate= 788.6kbits/s speed=0.597x    frame= 3334 fps= 15 q=23.0 size=   12800KiB time=00:02:13.28 bitrate= 786.7kbits/s speed=0.597x    frame= 3344 fps= 15 q=23.0 size=   12800KiB time=00:02:13.68 bitrate= 784.4kbits/s speed=0.598x    frame= 3352 fps= 15 q=23.0 size=   12800KiB time=00:02:14.00 bitrate= 782.5kbits/s speed=0.598x    frame= 3362 fps= 15 q=23.0 size=   12800KiB time=00:02:14.40 bitrate= 780.2kbits/s speed=0.598x    frame= 3370 fps= 15 q=23.0 size=   12800KiB time=00:02:14.72 bitrate= 778.3kbits/s speed=0.598x    frame= 3380 fps= 15 q=23.0 size=   12800KiB time=00:02:15.12 bitrate= 776.0kbits/s speed=0.599x    frame= 3388 fps= 15 q=23.0 size=   12800KiB time=00:02:15.44 bitrate= 774.2kbits/s speed=0.599x    frame= 3396 fps= 15 q=23.0 size=   12800KiB time=00:02:15.76 bitrate= 772.4kbits/s speed=0.599x    frame= 3406 fps= 15 q=23.0 size=   13056KiB time=00:02:16.16 bitrate= 785.5kbits/s speed= 0.6x    frame= 3414 fps= 15 q=23.0 size=   13056KiB time=00:02:16.48 bitrate= 783.7kbits/s speed= 0.6x    frame= 3424 fps= 15 q=23.0 size=   13056KiB time=00:02:16.88 bitrate= 781.4kbits/s speed= 0.6x    frame= 3433 fps= 15 q=23.0 size=   13056KiB time=00:02:17.28 bitrate= 779.1kbits/s speed=0.601x    frame= 3442 fps= 15 q=23.0 size=   13056KiB time=00:02:17.60 bitrate= 777.3kbits/s speed=0.601x    frame= 3451 fps= 15 q=23.0 size=   13056KiB time=00:02:17.96 bitrate= 775.3kbits/s speed=0.601x    frame= 3460 fps= 15 q=23.0 size=   13056KiB time=00:02:18.32 bitrate= 773.2kbits/s speed=0.601x    frame= 3470 fps= 15 q=23.0 size=   13056KiB time=00:02:18.72 bitrate= 771.0kbits/s speed=0.602x    frame= 3478 fps= 15 q=23.0 size=   13056KiB time=00:02:19.04 bitrate= 769.2kbits/s speed=0.602x    frame= 3487 fps= 15 q=23.0 size=   13056KiB time=00:02:19.40 bitrate= 767.3kbits/s speed=0.602x    frame= 3494 fps= 15 q=23.0 size=   13056KiB time=00:02:19.68 bitrate= 765.7kbits/s speed=0.602x    frame= 3500 fps= 15 q=23.0 size=   13056KiB time=00:02:19.92 bitrate= 764.4kbits/s speed=0.601x    frame= 3510 fps= 15 q=23.0 size=   13568KiB time=00:02:20.32 bitrate= 792.1kbits/s speed=0.602x    frame= 3522 fps= 15 q=23.0 size=   13568KiB time=00:02:20.80 bitrate= 789.4kbits/s speed=0.603x    frame= 3530 fps= 15 q=23.0 size=   13568KiB time=00:02:21.12 bitrate= 787.6kbits/s speed=0.603x    frame= 3540 fps= 15 q=23.0 size=   13568KiB time=00:02:21.52 bitrate= 785.4kbits/s speed=0.603x    frame= 3548 fps= 15 q=23.0 size=   13824KiB time=00:02:21.84 bitrate= 798.4kbits/s speed=0.603x    frame= 3558 fps= 15 q=23.0 size=   13824KiB time=00:02:22.24 bitrate= 796.2kbits/s speed=0.604x    frame= 3566 fps= 15 q=23.0 size=   13824KiB time=00:02:22.56 bitrate= 794.4kbits/s speed=0.604x    frame= 3576 fps= 15 q=23.0 size=   13824KiB time=00:02:22.96 bitrate= 792.2kbits/s speed=0.604x    frame= 3584 fps= 15 q=23.0 size=   13824KiB time=00:02:23.28 bitrate= 790.4kbits/s speed=0.604x    frame= 3594 fps= 15 q=23.0 size=   13824KiB time=00:02:23.68 bitrate= 788.2kbits/s speed=0.605x    frame= 3603 fps= 15 q=23.0 size=   13824KiB time=00:02:24.04 bitrate= 786.2kbits/s speed=0.605x    frame= 3612 fps= 15 q=23.0 size=   13824KiB time=00:02:24.40 bitrate= 784.3kbits/s speed=0.605x    frame= 3642 fps= 15 q=23.0 size=   13824KiB time=N/A bitrate=N/A speed=N/A    [out#0/mp4 @ 0x5555b770dab0] video:8196KiB audio:5800KiB subtitle:0KiB other streams:0KiB global headers:0KiB muxing overhead: 0.787227%
frame= 3664 fps= 15 q=-1.0 Lsize=   14106KiB time=00:02:25.77 bitrate= 792.7kbits/s speed=0.609x    
[libx264 @ 0x5555b76f0050] frame I:15    Avg QP:14.35  size:538779
[libx264 @ 0x5555b76f0050] frame P:923   Avg QP:19.23  size:    97
[libx264 @ 0x5555b76f0050] frame B:2726  Avg QP:27.92  size:    81
[libx264 @ 0x5555b76f0050] consecutive B-frames:  0.8%  0.0%  0.1% 99.1%
[libx264 @ 0x5555b76f0050] mb I  I16..4: 16.1%  1.1% 82.8%
[libx264 @ 0x5555b76f0050] mb P  I16..4:  0.0%  0.0%  0.0%  P16..4:  0.0%  0.0%  0.0%  0.0%  0.0%    skip:100.0%
[libx264 @ 0x5555b76f0050] mb B  I16..4:  0.0%  0.0%  0.0%  B16..8:  0.1%  0.0%  0.0%  direct: 0.0%  skip:99.8%  L0:52.5% L1:47.5% BI: 0.0%
[libx264 @ 0x5555b76f0050] 8x8 transform intra:6.9% inter:6.7%
[libx264 @ 0x5555b76f0050] coded y,uvDC,uvAC intra: 61.6% 0.0% 0.0% inter: 0.0% 0.0% 0.0%
[libx264 @ 0x5555b76f0050] i16 v,h,dc,p: 85% 10%  5%  0%
[libx264 @ 0x5555b76f0050] i8 v,h,dc,ddl,ddr,vr,hd,vl,hu: 10%  2% 87%  0%  0%  0%  0%  0%  0%
[libx264 @ 0x5555b76f0050] i4 v,h,dc,ddl,ddr,vr,hd,vl,hu: 30% 16% 16%  6%  5%  7%  6%  7%  5%
[libx264 @ 0x5555b76f0050] i8c dc,h,v,p: 100%  0%  0%  0%
[libx264 @ 0x5555b76f0050] Weighted P-Frames: Y:0.0% UV:0.0%
[libx264 @ 0x5555b76f0050] ref P L0: 97.2%  0.5%  2.3%  0.1%
[libx264 @ 0x5555b76f0050] ref B L0: 88.1% 11.8%  0.0%
[libx264 @ 0x5555b76f0050] ref B L1: 95.9%  4.1%
[libx264 @ 0x5555b76f0050] kb/s:458.06
[aac @ 0x5555b7703730] Qavg: 4367.398
